<svg width="41" height="44" viewBox="0 0 41 44" fill="none" xmlns="http://www.w3.org/2000/svg">
<path d="M0.364113 27.5508C0.323876 28.3554 0.282326 29.1864 0.31002 30.0714C0.288253 30.5067 0.316424 30.9712 0.313972 31.4314L0.373023 32.5113C0.443775 32.9464 0.534518 33.3931 0.614598 33.8473C0.954996 34.4401 1.24422 35.2337 1.82816 35.6839C2.1505 35.9834 2.48108 36.2494 2.81629 36.479L3.48539 36.8704C3.87488 37.0982 4.25438 37.3202 4.61391 37.5304C5.34295 37.9568 6.05795 38.2529 6.75166 38.5636C8.13842 39.1982 9.45791 39.7391 10.7181 40.2318C13.2186 41.2056 15.4627 41.9615 17.336 42.5277C21.0826 43.6601 23.3571 44.0129 23.3123 43.4708C23.2675 42.9287 20.9079 41.603 17.1338 39.7892L10.5355 36.6902L6.67009 34.8503C6.3605 34.6692 6.05094 34.4882 5.72806 34.3672C8.2162 33.4113 10.6153 32.2313 12.915 30.8323C16.2896 28.7865 19.5191 26.434 22.5905 23.7841C25.9276 20.8931 29.0688 17.649 31.9985 14.0678C37.5479 7.30801 40.8969 0.564448 40.5219 0.0464554C40.147 -0.471537 35.9102 5.1147 29.9224 10.98C26.9484 13.9244 23.5286 16.9473 20.1085 19.5629C16.6885 22.1784 13.2676 24.3998 10.4568 26.1363C7.03317 28.2067 4.73269 29.3999 3.23814 30.3043C3.2566 29.9349 3.27573 29.5524 3.2942 29.1831C3.31278 27.5784 3.33873 26.0323 3.36069 24.5653C3.40528 21.6182 3.43601 18.9481 3.425 16.7016C3.40432 12.1823 3.2193 9.30452 2.78054 9.03432C2.34178 8.76412 1.8297 11.1934 1.30912 15.4369C1.04982 17.5389 0.798701 20.0937 0.593002 22.9737C0.519784 24.4378 0.442608 25.9811 0.362134 27.5903" fill="white"/>
</svg>
