<svg width="26" height="23" viewBox="0 0 26 23" fill="none" xmlns="http://www.w3.org/2000/svg">
<path d="M19.7511 4.00402C20.2415 4.00402 20.6468 4.34496 20.711 4.7873L20.7198 4.91027L20.7197 19.1686L24.3315 15.7763C24.7089 15.4216 25.3223 15.4202 25.7015 15.7733C26.0462 16.0943 26.0787 16.5977 25.7982 16.9531L25.7047 17.055L20.4375 22.0051C20.4058 22.0343 20.3735 22.0608 20.3394 22.0852L20.4375 22.0051C20.39 22.0498 20.3387 22.0888 20.2847 22.1223C20.2658 22.1333 20.2462 22.1445 20.2262 22.1551C20.2076 22.1655 20.1887 22.1748 20.1695 22.1833C20.1506 22.1912 20.1314 22.1991 20.1119 22.2064C20.0871 22.2163 20.0617 22.2247 20.036 22.2321C20.0209 22.2359 20.0054 22.2399 19.9897 22.2436C19.9618 22.2508 19.9338 22.2562 19.9056 22.2605C19.8924 22.2619 19.8785 22.2637 19.8646 22.2652C19.8328 22.2693 19.8012 22.2713 19.7697 22.2718C19.7634 22.2713 19.7573 22.2713 19.7511 22.2713L19.7322 22.2718C19.7006 22.2713 19.6691 22.2693 19.6377 22.2658L19.7511 22.2713C19.6983 22.2713 19.6465 22.2674 19.596 22.2598C19.5681 22.2562 19.5401 22.2508 19.5123 22.2442C19.4976 22.2401 19.4829 22.2363 19.4683 22.2321C19.4405 22.2249 19.4129 22.2157 19.3857 22.2054C19.3708 22.199 19.3565 22.1931 19.3423 22.187C19.32 22.178 19.2976 22.1673 19.2756 22.1557C19.2558 22.1444 19.2363 22.1332 19.2172 22.1214C19.2023 22.113 19.1876 22.1034 19.1731 22.0933L19.1628 22.0852C19.1287 22.0608 19.0964 22.0343 19.0661 22.0059L13.7972 17.055C13.4198 16.7002 13.4212 16.1264 13.8004 15.7733C14.1451 15.4523 14.6834 15.4242 15.062 15.6883L15.1704 15.7763L18.7822 19.1711L18.7823 4.91027C18.7823 4.40976 19.216 4.00402 19.7511 4.00402ZM6.92684 0.725143L6.94571 0.72464C6.97727 0.725207 7.00882 0.727209 7.04022 0.730646L6.92684 0.725143C6.97961 0.725143 7.0314 0.729091 7.08188 0.736688C7.1095 0.740218 7.13721 0.745554 7.16469 0.752032C7.18084 0.756465 7.19731 0.760789 7.21359 0.765503C7.23903 0.772212 7.26365 0.780366 7.28795 0.789479C7.30552 0.796797 7.32331 0.804071 7.34081 0.811821C7.36162 0.820236 7.3821 0.830138 7.40227 0.840768C7.41953 0.850714 7.43663 0.860402 7.45337 0.870561C7.47059 0.880142 7.48784 0.891355 7.50477 0.903152L7.61357 0.991389L12.8807 5.94153C13.2581 6.29626 13.2567 6.87006 12.8775 7.22316C12.5328 7.54415 11.9946 7.57224 11.616 7.30818L11.5075 7.22019L7.89472 3.82402L7.89559 18.0862C7.89559 18.5867 7.46186 18.9925 6.92684 18.9925C6.4364 18.9925 6.03108 18.6515 5.96693 18.2092L5.95809 18.0862L5.95722 3.82522L2.34644 7.22019C2.00331 7.54268 1.46519 7.57309 1.0853 7.31067L0.976426 7.22316C0.631705 6.90216 0.599195 6.39876 0.879713 6.04337L0.97326 5.94153L6.24039 0.991389L6.29743 0.942455C6.31083 0.931735 6.32454 0.92135 6.33855 0.911316L6.24039 0.991389C6.28791 0.946727 6.33917 0.907669 6.39322 0.874217C6.41208 0.863225 6.43168 0.852004 6.45173 0.841431C6.47034 0.830938 6.48926 0.82173 6.50842 0.813146C6.52734 0.805314 6.54653 0.797411 6.56603 0.790084C6.59081 0.780172 6.61622 0.77178 6.6419 0.764408C6.65752 0.760483 6.67352 0.756299 6.68968 0.752495C6.71571 0.745809 6.74201 0.740697 6.76847 0.736614C6.78438 0.734753 6.79997 0.732723 6.81568 0.731044C6.84558 0.727201 6.87626 0.725254 6.90696 0.724664C6.91374 0.725204 6.92028 0.725143 6.92684 0.725143Z" fill="#F2C94C"/>
</svg>
