<svg width="55" height="35" viewBox="0 0 55 35" fill="none" xmlns="http://www.w3.org/2000/svg">
<path d="M54.3994 26.2793C54.3994 28.7337 53.3838 30.7861 51.3525 32.4365C49.3636 34.0446 47.0996 34.8486 44.5605 34.8486C40.8366 34.8486 37.7686 33.4098 35.3564 30.5322C33.1559 27.9085 32.0557 24.8617 32.0557 21.3916C32.0557 16.2288 33.8542 11.7643 37.4512 7.99805C40.7943 4.44336 45.3857 1.81966 51.2256 0.126953V4.37988C47.4593 6.36881 44.8356 8.125 43.3545 9.64844C41.1963 11.7643 40.1172 14.2822 40.1172 17.2021C40.1172 19.0218 40.5404 19.9316 41.3867 19.9316C41.9368 19.9316 42.7832 19.7624 43.9258 19.4238C45.0684 19.0853 45.957 18.916 46.5918 18.916C48.7923 18.916 50.6331 19.6354 52.1143 21.0742C53.6377 22.4707 54.3994 24.2057 54.3994 26.2793ZM22.3438 26.4062C22.3438 28.8184 21.307 30.8496 19.2334 32.5C17.2868 33.9811 15.0863 34.7217 12.6318 34.7217C8.90788 34.7217 5.81868 33.2617 3.36426 30.3418C1.12142 27.6758 0 24.6077 0 21.1377C0 16.1442 1.86198 11.722 5.58594 7.87109C9.01367 4.35872 13.584 1.73503 19.2969 0V4.37988C11.9759 7.97689 8.31543 12.124 8.31543 16.8213C8.31543 18.8102 8.69629 19.8047 9.45801 19.8047C10.0081 19.8047 10.8122 19.6566 11.8701 19.3604C12.9704 19.0641 13.8167 18.916 14.4092 18.916C16.6097 18.916 18.4717 19.6566 19.9951 21.1377C21.5609 22.5765 22.3438 24.3327 22.3438 26.4062Z" fill="#F2C94C"/>
</svg>
